# Blender 4.3.2
# www.blender.org
o axis
v 11.748000 -0.360000 1.268000
v 11.276000 -0.360000 1.268000
v 10.424000 -0.360000 0.228000
v 9.568000 -0.360000 1.268000
v 9.092000 -0.360000 1.268000
v 10.184000 -0.360000 -0.048000
v 9.008000 -0.360000 -1.460000
v 9.484000 -0.360000 -1.460000
v 10.424000 -0.360000 -0.332000
v 11.352000 -0.360000 -1.460000
v 11.824000 -0.360000 -1.460000
v 10.660000 -0.360000 -0.048000
v 9.484000 0.373033 -1.460000
v 10.424000 0.373033 -0.332000
v 11.748000 0.373033 1.268000
v 10.660000 0.373033 -0.048000
v 9.568000 0.373033 1.268000
v 10.184000 0.373033 -0.048000
v 11.824000 0.373033 -1.460000
v 9.008000 0.373033 -1.460000
v 10.424000 0.373033 0.228000
v 11.352000 0.373033 -1.460000
v 9.092000 0.373033 1.268000
v 11.276000 0.373033 1.268000
v 0.620000 -0.379999 11.376000
v -1.116000 -0.379999 9.000000
v 1.344000 -0.379999 9.000000
v 1.344000 -0.379999 9.352000
v -0.392000 -0.379999 9.352000
v 1.344000 -0.379999 11.728000
v -1.008000 -0.379999 11.728000
v -1.008000 -0.379999 11.376000
v -0.392000 0.384924 9.352000
v 1.344000 0.384924 11.728000
v 0.620000 0.384924 11.376000
v 1.344000 0.384924 9.352000
v -1.116000 0.384924 9.000000
v -1.008000 0.384924 11.728000
v -1.008000 0.384924 11.376000
v 1.344000 0.384924 9.000000
v 0.250000 10.788000 0.103999
v 0.250000 11.728000 -0.628001
v 0.250000 11.728000 -1.100001
v 0.250000 10.444000 -0.088001
v 0.250000 9.000000 -0.088001
v 0.250000 9.000000 0.303999
v 0.250000 10.440000 0.303999
v 0.250000 11.728000 1.315999
v 0.250000 11.728000 0.843999
v -0.304321 9.000000 -0.088001
v -0.304321 9.000000 0.303999
v -0.304321 10.440000 0.303999
v -0.304321 10.444000 -0.088001
v -0.304321 11.728000 1.315999
v -0.304321 10.788000 0.103999
v -0.304321 11.728000 -0.628001
v -0.304321 11.728000 -1.100001
v -0.304321 11.728000 0.843999
v -0.500000 -0.500000 -0.500000
v -0.500000 0.500000 -0.500000
v -0.500000 -0.500000 0.500000
v -0.500000 0.500000 0.500000
v 0.500000 -0.500000 -0.500000
v 0.500000 0.500000 -0.500000
v 0.500000 -0.500000 0.500000
v 0.500000 0.500000 0.500000
v 8.500000 0.500000 0.500000
v 8.500000 -0.500000 0.500000
v 8.500000 -0.500000 -0.500000
v 8.500000 0.500000 -0.500000
v -0.500000 8.500000 -0.500001
v -0.500000 8.500000 0.499999
v 0.500000 8.500000 0.499999
v 0.500000 8.500000 -0.500001
v -0.500000 0.500001 8.500000
v -0.503419 -0.433490 8.552648
v 0.500000 -0.499999 8.500000
v 0.500000 0.500001 8.500000
s 0
f 6 4 5
f 6 3 4
f 3 1 2
f 3 12 1
f 6 12 3
f 7 12 6
f 7 9 12
f 9 11 12
f 7 8 9
f 10 11 9
f 18 23 17
f 18 17 21
f 21 24 15
f 21 15 16
f 18 21 16
f 20 18 16
f 20 16 14
f 14 16 19
f 20 14 13
f 22 14 19
f 6 5 23
f 9 8 13
f 10 9 14
f 7 6 18
f 1 12 16
f 11 10 22
f 2 1 15
f 5 4 17
f 4 3 21
f 3 2 24
f 8 7 20
f 12 11 19
f 32 30 31
f 32 25 30
f 25 29 30
f 26 29 25
f 26 28 29
f 26 27 28
f 39 38 34
f 39 34 35
f 35 34 33
f 37 35 33
f 37 33 36
f 37 36 40
f 28 27 40
f 25 32 39
f 32 31 38
f 26 25 35
f 29 28 36
f 30 29 33
f 27 26 37
f 31 30 34
f 44 43 42
f 44 42 41
f 41 49 48
f 41 48 47
f 44 41 47
f 45 44 47
f 45 47 46
f 53 56 57
f 53 55 56
f 55 54 58
f 55 52 54
f 53 52 55
f 50 52 53
f 50 51 52
f 58 49 41
f 50 45 46
f 55 41 42
f 54 48 49
f 51 46 47
f 52 47 48
f 56 42 43
f 57 43 44
f 53 44 45
f 60 59 61
f 65 66 78
f 66 65 68
f 64 63 59
f 65 61 59
f 60 62 72
f 67 68 69
f 63 64 70
f 65 63 69
f 64 66 67
f 72 73 74
f 64 60 71
f 62 66 73
f 66 64 74
f 75 76 77
f 61 65 77
f 66 62 75
f 62 61 76
f 6 23 18
f 9 13 14
f 10 14 22
f 7 18 20
f 1 16 15
f 11 22 19
f 2 15 24
f 5 17 23
f 4 21 17
f 3 24 21
f 8 20 13
f 12 19 16
f 28 40 36
f 25 39 35
f 32 38 39
f 26 35 37
f 29 36 33
f 30 33 34
f 27 37 40
f 31 34 38
f 58 41 55
f 50 46 51
f 55 42 56
f 54 49 58
f 51 47 52
f 52 48 54
f 56 43 57
f 57 44 53
f 53 45 50
f 60 61 62
f 65 78 77
f 66 68 67
f 64 59 60
f 65 59 63
f 60 72 71
f 67 69 70
f 63 70 69
f 65 69 68
f 64 67 70
f 72 74 71
f 64 71 74
f 62 73 72
f 66 74 73
f 75 77 78
f 61 77 76
f 66 75 78
f 62 76 75
